<svg width="36" height="36" viewBox="0 0 36 36" fill="none" xmlns="http://www.w3.org/2000/svg">
<path d="M15.2157 9.94136C16.3956 6.99987 16.9855 5.52912 18 5.52912C19.0145 5.52912 19.6045 6.99987 20.7844 9.94137L20.8393 10.0783C21.5059 11.7401 21.8392 12.571 22.5185 13.0761C23.1977 13.5811 24.0894 13.661 25.8728 13.8207L26.1952 13.8496C29.1139 14.1109 30.5733 14.2416 30.8856 15.1701C31.1978 16.0986 30.114 17.0846 27.9465 19.0566L27.2231 19.7148C26.1258 20.7131 25.5772 21.2122 25.3215 21.8664C25.2738 21.9884 25.2341 22.1135 25.2027 22.2407C25.0347 22.9227 25.1953 23.6468 25.5166 25.095L25.6166 25.5458C26.2072 28.2073 26.5024 29.538 25.9869 30.112C25.7943 30.3265 25.5439 30.4809 25.2658 30.5568C24.5215 30.7599 23.4648 29.8988 21.3513 28.1767C19.9636 27.0459 19.2697 26.4805 18.473 26.3533C18.1597 26.3032 17.8404 26.3032 17.527 26.3533C16.7303 26.4805 16.0365 27.0459 14.6487 28.1767C12.5353 29.8988 11.4786 30.7599 10.7343 30.5568C10.4561 30.4809 10.2058 30.3265 10.0131 30.112C9.49762 29.538 9.79287 28.2073 10.3834 25.5458L10.4834 25.095C10.8047 23.6468 10.9654 22.9227 10.7973 22.2407C10.7659 22.1135 10.7263 21.9884 10.6786 21.8664C10.4229 21.2122 9.87424 20.7131 8.77698 19.7148L8.05356 19.0566C5.88599 17.0846 4.80221 16.0986 5.11448 15.1701C5.42674 14.2416 6.8861 14.1109 9.80482 13.8496L10.1272 13.8207C11.9106 13.661 12.8023 13.5811 13.4816 13.0761C14.1608 12.571 14.4941 11.7401 15.1607 10.0783L15.2157 9.94136Z" stroke="white" stroke-width="2"/>
</svg>
