<svg width="36" height="36" viewBox="0 0 36 36" fill="none" xmlns="http://www.w3.org/2000/svg">
<path fill-rule="evenodd" clip-rule="evenodd" d="M28.5 23.9257V21H24.3787C24.027 21 23.8512 21 23.7031 21.0147C22.281 21.1562 21.1562 22.281 21.0147 23.7031C21 23.8512 21 24.027 21 24.3787C21 24.7983 21 25.0082 21.0187 25.1747C21.1998 26.7913 22.6364 27.969 24.2571 27.8296C24.424 27.8152 24.6298 27.774 25.0413 27.6917L25.4855 27.6029C26.0562 27.4888 26.3415 27.4317 26.5822 27.3386C27.5648 26.9586 28.2759 26.091 28.4559 25.0531C28.5 24.7987 28.5 24.5077 28.5 23.9257ZM13.5 26.9257V24H9.37868C9.02701 24 8.85117 24 8.70307 24.0147C7.28104 24.1562 6.15617 25.281 6.01473 26.7031C6 26.8512 6 27.027 6 27.3787C6 27.7983 6 28.0082 6.01866 28.1747C6.19982 29.7913 7.63636 30.969 9.25708 30.8296C9.42401 30.8152 9.62991 30.774 10.0413 30.6917L10.4854 30.6029C11.0561 30.4888 11.3415 30.4317 11.5822 30.3386C12.5648 29.9586 13.2759 29.091 13.4559 28.0531C13.5 27.7987 13.5 27.5077 13.5 26.9257Z" fill="white"/>
<path d="M13.5 24V16.5M13.5 24V26.9257M13.5 24H9.37868M28.5 21V13.5M28.5 21V23.9257M28.5 21H24.3787M28.5 13.5L13.5 16.5M28.5 13.5V13.3188M13.5 16.5V13.9188M13.5 13.9188C13.5 11.5642 13.5 10.3869 14.18 9.55744C14.8599 8.72801 16.0144 8.49712 18.3233 8.03534M13.5 13.9188V12.2792C13.5 10.7095 13.5 9.92459 13.9533 9.37163C14.4066 8.81867 15.1763 8.66475 16.7155 8.35689L18.3233 8.03534M13.5 13.9188V26.9257M18.3233 8.03534L21.3233 7.43534M21.3233 7.43534C24.6437 6.77126 26.3039 6.43921 27.402 7.33939C28.5 8.23956 28.5 9.93265 28.5 13.3188M21.3233 7.43534L23.7155 6.95689C25.9291 6.51417 27.036 6.29281 27.768 6.89292C28.5 7.49304 28.5 8.62176 28.5 10.8792V13.3188M28.5 23.9257C28.5 24.5077 28.5 24.7987 28.4559 25.0531C28.2759 26.091 27.5648 26.9586 26.5822 27.3386C26.3415 27.4317 26.0562 27.4888 25.4855 27.6029M28.5 23.9257V23.9257C28.5 25.2952 28.5 25.98 28.1497 26.4911C28.085 26.5855 28.0122 26.6743 27.9322 26.7563C27.4998 27.2 26.8284 27.3343 25.4855 27.6029V27.6029M25.4855 27.6029L25.0413 27.6917M25.0413 27.6917C24.6298 27.774 24.424 27.8152 24.2571 27.8296C22.6364 27.969 21.1998 26.7913 21.0187 25.1747C21 25.0082 21 24.7983 21 24.3787M25.0413 27.6917V27.6917C23.5307 27.9939 22.7754 28.1449 22.199 27.893C21.8613 27.7454 21.571 27.5074 21.3601 27.2052C21 26.6894 21 25.9192 21 24.3787V24.3787M21 24.3787C21 24.027 21 23.8512 21.0147 23.7031C21.1562 22.281 22.281 21.1562 23.7031 21.0147C23.8512 21 24.027 21 24.3787 21M21 24.3787V24.3787C21 23.0895 21 22.445 21.286 21.9693C21.4545 21.6891 21.6891 21.4545 21.9693 21.286C22.445 21 23.0895 21 24.3787 21V21M13.5 26.9257C13.5 27.5077 13.5 27.7987 13.4559 28.0531C13.2759 29.091 12.5648 29.9586 11.5822 30.3386C11.3415 30.4317 11.0561 30.4888 10.4854 30.6029M13.5 26.9257V26.9257C13.5 28.2953 13.5 28.98 13.1497 29.4911C13.085 29.5856 13.0122 29.6743 12.9323 29.7563C12.4998 30.2 11.8284 30.3343 10.4854 30.6029V30.6029M10.4854 30.6029L10.0413 30.6917M10.0413 30.6917C9.62991 30.774 9.42401 30.8152 9.25708 30.8296C7.63636 30.969 6.19982 29.7913 6.01866 28.1747C6 28.0082 6 27.7983 6 27.3787M10.0413 30.6917V30.6917C8.53071 30.9939 7.77542 31.1449 7.19903 30.893C6.86135 30.7454 6.57101 30.5074 6.36006 30.2052C6 29.6894 6 28.9192 6 27.3787V27.3787M6 27.3787C6 27.027 6 26.8512 6.01473 26.7031C6.15617 25.281 7.28104 24.1562 8.70307 24.0147C8.85117 24 9.02701 24 9.37868 24M6 27.3787V27.3787C6 26.0895 6 25.445 6.28603 24.9693C6.45452 24.6891 6.68913 24.4545 6.96932 24.286C7.44497 24 8.08954 24 9.37868 24V24" stroke="white" stroke-width="2"/>
</svg>
