<svg width="36" height="36" viewBox="0 0 36 36" fill="none" xmlns="http://www.w3.org/2000/svg">
<path fill-rule="evenodd" clip-rule="evenodd" d="M18.5 11.5V3H15C10.7574 3 8.63604 3 7.31802 4.31802C6 5.63604 6 7.75736 6 12V24C6 28.2426 6 30.364 7.31802 31.682C8.63604 33 10.7574 33 15 33H21C25.2426 33 27.364 33 28.682 31.682C30 30.364 30 28.2426 30 24V14.5H21.5L21.4456 14.5H21.4456H21.4456C21.0215 14.5001 20.6094 14.5002 20.2695 14.4545C19.8863 14.403 19.449 14.2774 19.0858 13.9142C18.7226 13.551 18.597 13.1137 18.5455 12.7305C18.4998 12.3906 18.4999 11.9785 18.5 11.5544V11.5544V11.5544L18.5 11.5ZM20.5 11.5V3.00065C21.4132 3.00457 21.9321 3.03231 22.4054 3.22836C22.9567 3.45672 23.3903 3.89027 24.2574 4.75736L28.2426 8.74264C29.1097 9.60973 29.5433 10.0433 29.7716 10.5946C29.9677 11.0679 29.9954 11.5868 29.9994 12.5H21.5C21.0003 12.5 20.7262 12.4979 20.536 12.4723L20.5287 12.4713L20.5277 12.464C20.5021 12.2738 20.5 11.9997 20.5 11.5ZM16.2565 18.1858L21.5012 20.7632C22.8329 21.4176 22.8329 23.5824 21.5012 24.2368L16.2565 26.8142C14.9516 27.4555 13.5 26.3579 13.5 24.73V20.27C13.5 18.6421 14.9516 17.5445 16.2565 18.1858Z" fill="white"/>
</svg>
